<?xml version="1.0" encoding="UTF-8" standalone="no"?>
<!-- Created with Inkscape (http://www.inkscape.org/) -->
<svg width="1920" height="1080" viewBox="0 0 507.99999 285.75" version="1.1" id="svg1" inkscape:version="1.4.2 (ebf0e940d0, 2025-05-08)" sodipodi:docname="catppuccin-mocha-mauve-archlinux-wallpaper-no-text.svg" inkscape:export-filename="catppuccin-mocha-mauve-archlinux-wallpaper-no-text.png" inkscape:export-xdpi="96" inkscape:export-ydpi="96" xmlns:inkscape="http://www.inkscape.org/namespaces/inkscape" xmlns:sodipodi="http://sodipodi.sourceforge.net/DTD/sodipodi-0.dtd" xmlns="http://www.w3.org/2000/svg" xmlns:svg="http://www.w3.org/2000/svg">
  <sodipodi:namedview id="namedview1" pagecolor="#ffffff" bordercolor="#000000" borderopacity="0.25" inkscape:showpageshadow="2" inkscape:pageopacity="0.0" inkscape:pagecheckerboard="0" inkscape:deskcolor="#d1d1d1" inkscape:document-units="mm" inkscape:zoom="0.39642957" inkscape:cx="963.60118" inkscape:cy="510.80952" inkscape:window-width="1280" inkscape:window-height="649" inkscape:window-x="0" inkscape:window-y="0" inkscape:window-maximized="1" inkscape:current-layer="layer1"/>
  <defs id="defs1"/>
  <g inkscape:label="Background" inkscape:groupmode="layer" id="layer1">
    <rect style="fill:#24273a;fill-opacity:1;stroke-width:0.264583" id="rect1" width="508" height="285.75" x="0" y="0" inkscape:label="Mocha"/>
  </g>
  <g inkscape:groupmode="layer" id="layer6" inkscape:label="Catppuccin Arch Linux" transform="matrix(0.53071074,0,0,0.53071074,122.08908,160.2941)">
    <path d="m 253.77028,83.495045 c -5.28625,12.96073 -8.47908,21.433435 -14.36075,34.008435 3.60484,3.82743 8.03423,8.28278 15.23102,13.31395 -7.73325,-3.18612 -13.01298,-6.37894 -16.95146,-9.69604 -7.53043,15.72159 -19.33314,38.10352 -43.2789,81.13286 18.8223,-10.86713 33.41218,-17.56614 47.00718,-20.11866 10.54831,-1.53641 14.09652,-1.54861 25.28025,0.0861 13.4513,2.63007 27.88341,9.31652 46.45113,20.03324 -3.6638,-6.73871 -6.92848,-12.81668 -10.04928,-18.59954 -4.91996,-3.8142 -10.04275,-8.76699 -20.50388,-14.13833 7.19026,1.87117 12.33917,4.02356 16.34967,6.4312 -31.7306,-59.07302 -34.29652,-66.92318 -45.17654,-92.451695 z" fill="#1793d1" fill-rule="evenodd" id="path10-9" style="display:inline;fill:#f0c6c6;fill-opacity:1;stroke-width:1.67488" sodipodi:nodetypes="ccccccccccccc" inkscape:label="Arch Linux logo" transform="matrix(2.4009953,0,0,2.4009953,-360.76811,-375.86439)"/>
    <g id="g18" inkscape:label="Catppuccin logo" style="display:inline" transform="matrix(1.7622678,0,0,1.7622678,-201.55789,-249.96542)">
      <path d="m 236.53981,176.35507 c 0.58513,-4.4712 1.45037,-8.38306 2.59898,-11.7393 -5.52879,-2.83501 -9.61613,-7.60254 -10.56863,-14.48726 -0.8306,-6.00075 0.54303,-12.99554 4.12065,-17.95357 -0.87884,-3.32705 -2.07759,-9.73248 -1.20444,-13.36923 0.23014,-0.95883 1.10094,-1.60108 2.08794,-1.54027 4.66143,0.289 8.44158,2.11597 11.49117,5.65528 5.73828,-2.13434 13.01776,-2.09997 17.75513,-0.71681 2.47914,-3.44405 5.41946,-5.30315 9.32048,-6.25623 0.91704,-0.22482 1.83938,0.19383 2.2733,1.02992 1.74836,3.37415 1.93383,8.11418 1.04219,12.05256 11.25881,10.86559 8.38068,26.6882 -4.11163,34.20951 0.91626,4.46458 1.42558,9.08474 1.52533,13.86338 -5.25595,2.62493 -11.18341,4.10262 -17.45324,4.10262 -6.84239,0 -13.27719,-1.75947 -18.87723,-4.8506 z" fill="#11111b" id="path7" style="fill:#24273a;fill-opacity:1;stroke-width:0.264583"/>
      <path d="m 268.44036,132.5832 c 2.64927,-0.15955 4.93157,1.60337 5.63456,4.02457 0.0701,0.24316 -0.0275,0.48948 -0.24632,0.61569 -0.21961,0.1262 -0.48869,0.0908 -0.6694,-0.0894 -1.17792,-1.1721 -2.81146,-1.85685 -4.55665,-1.76742 -1.73011,0.0884 -3.2258,0.91758 -4.21164,2.16324 -0.14711,0.18679 -0.39582,0.24526 -0.61436,0.14314 -0.21855,-0.10187 -0.33682,-0.33126 -0.29792,-0.57441 0.38311,-2.39819 2.35373,-4.35822 4.96173,-4.51538 z m -17.21221,0.41513 c 1.50469,-0.0929 2.91386,0.39237 4.04707,1.26973 1.14353,0.8853 2.00872,2.16641 2.41141,3.64358 0.0804,0.29819 -0.0347,0.60113 -0.28654,0.75353 -0.25188,0.15134 -0.56039,0.10425 -0.76623,-0.11456 -1.34938,-1.43246 -3.22104,-2.2733 -5.2205,-2.17117 -1.97061,0.10107 -3.67321,1.10225 -4.78896,2.60456 -0.17039,0.23177 -0.44979,0.2995 -0.69717,0.1733 -0.24739,-0.12621 -0.38656,-0.4072 -0.34396,-0.69639 0.21272,-1.45176 0.88106,-2.76727 1.85658,-3.74226 0.98372,-0.98266 2.295,-1.62745 3.7883,-1.72032 z m 11.36597,9.04346 c 0.80857,-0.0516 1.59333,-0.10213 2.35136,-0.14923 0.25082,-0.0148 0.49477,0.19156 0.61992,0.52176 0.12541,0.33046 0.10027,0.69056 -0.0609,0.93477 -1.00885,1.53009 -1.65312,2.28918 -2.39977,2.38205 -0.76967,0.0952 -1.67613,-0.52414 -3.31179,-1.81558 -0.29474,-0.23045 -0.45905,-0.63182 -0.42227,-1.02526 0.0344,-0.39449 0.26802,-0.66066 0.58896,-0.6813 0.90884,-0.0585 1.78779,-0.1135 2.63445,-0.16721 z m 0.52441,5.54037 c 0.19103,-0.25691 0.48895,-0.31088 0.74321,-0.13758 0.80645,0.55747 1.50469,0.75459 2.10185,0.62045 0.58447,-0.13309 1.21021,-0.26141 1.7026,-1.03109 0.76729,-1.19724 0.98001,-0.44026 0.5924,0.52203 -0.23918,0.59055 -0.69268,1.28217 -1.3253,1.74096 -0.64876,0.46884 -1.5105,0.71093 -2.57095,0.34051 -0.36936,-0.12858 -0.74084,-0.0434 -1.0586,0.24316 -0.73845,0.66648 -1.63354,1.03901 -2.56302,1.0541 -0.97208,0.0159 -2.0074,-0.35455 -2.94825,-1.20545 -1.04352,-0.94403 -1.0377,-1.98067 0.65775,-0.93239 0.99298,0.61701 1.85685,0.43683 2.61144,0.29131 0.73528,-0.14473 1.41843,-0.64691 2.05687,-1.50601 z" fill="#cdd6f4" id="path8" style="fill:#f0c6c6;fill-opacity:1;stroke-width:0.264583"/>
      <path d="m 262.61926,168.68374 c -0.78343,1.61819 -2.68843,2.92576 -4.33573,3.05991 -0.17938,0.0137 -0.34052,-0.0699 -0.43021,-0.22596 -1.31127,-2.27753 -1.45415,-4.78472 -1.01812,-6.89266 0.0265,-0.12726 0.0966,-0.22728 0.20823,-0.29501 0.11271,-0.0675 0.23336,-0.0847 0.35904,-0.0492 2.22356,0.62283 3.90657,1.42002 5.04904,2.3913 0.79137,-1.03902 1.88304,-1.75815 3.27634,-2.15503 0.23812,-0.0675 0.48657,0.0677 0.5588,0.30295 0.50985,1.6674 0.6477,3.45784 0.21193,5.07153 -0.0635,0.23389 -0.37042,0.42201 -0.66728,0.34396 -1.15517,-0.30162 -2.35029,-0.87974 -3.21204,-1.55178 z" fill="#f38ba8" id="path9" style="fill:#f0c6c6;fill-opacity:1;stroke-width:0.264583"/>
    </g>
  </g>
</svg>